<?xml version="1.0" encoding="utf-8"?>
<!-- Generator: Adobe Illustrator 28.1.0, SVG Export Plug-In . SVG Version: 6.00 Build 0)  -->
<svg version="1.1" id="_x2F_" xmlns="http://www.w3.org/2000/svg" xmlns:xlink="http://www.w3.org/1999/xlink" x="0px" y="0px"
	 viewBox="0 0 1080 1080" style="enable-background:new 0 0 1080 1080;" xml:space="preserve">
<style type="text/css">
	.st0{opacity:0.98;}
	.st1{fill:#FFFFFF;}
</style>
<g id="Head" class="st0">
	<ellipse id="H" cx="537.1" cy="452.2" rx="216.1" ry="170.9"/>
	<path id="Ear-R" d="M679.9,111.7c36.4,2.8,70.5,273.9,61.9,294.9c-8.5,21-150-76.9-150-76.9S643.5,108.9,679.9,111.7z"/>
	<path id="Ear-L" d="M387.8,120.8c-36.4,2.8-70.5,273.9-61.9,294.9c8.5,21,150-76.9,150-76.9S424.2,118,387.8,120.8z"/>
	<g id="Eye-R_00000183216900414617373560000004561787262033239206_">
		<ellipse id="Eye-L" class="st1" cx="640.1" cy="444.3" rx="48.3" ry="54.3"/>
		<ellipse cx="635.4" cy="444.3" rx="6.1" ry="15.1"/>
	</g>
	<g id="Eye-L_00000093889532689696946880000017441774106279395224_">
		<ellipse id="Eye-R" class="st1" cx="440.1" cy="444.3" rx="48.3" ry="54.3"/>
		<ellipse id="Pupil-R" cx="443.4" cy="446.8" rx="6.1" ry="15.1"/>
	</g>
	<ellipse id="Nose" class="st1" cx="541.5" cy="504" rx="16.7" ry="5.9"/>
	<g id="Wiskers-L">
		<path d="M337.1,489.1c-42,9.5-75.6,19-75.1,21.1c0.5,2.2,34.9-3.8,76.9-13.3"/>
		<path d="M350.2,476.3c-43-0.9-77.9,0.2-77.9,2.4s34.8,4.7,77.8,5.6"/>
		<path d="M352,496.7c-40.1,15.7-72,30.1-71.2,32.2c0.8,2.1,34-9,74.1-24.7"/>
	</g>
	<g id="Wiskers-R">
		<path d="M742.9,489.4c42,9.5,75.6,19,75.1,21.1c-0.5,2.2-34.9-3.8-76.9-13.3"/>
		<path d="M729.8,476.5c43-0.9,77.9,0.2,77.9,2.4s-34.8,4.7-77.8,5.6"/>
		<path d="M728,496.9c40.1,15.7,72,30.1,71.2,32.2c-0.8,2.1-34-9-74.1-24.7"/>
	</g>
	<path id="Body" d="M602.7,568.3c29,11.9,143.2,266.8,123.6,346s-338.4,57.1-369,22.2s69.9-329,90.3-343.5
		C468,578.6,573.7,556.4,602.7,568.3z"/>
</g>
</svg>
